<svg width="32" height="32" viewBox="0 0 32 32" fill="none" xmlns="http://www.w3.org/2000/svg">
<g clip-path="url(#clip0_4153_10)">
<rect width="32" height="32" rx="4" fill="#2563EB"/>
<path d="M12.62 17.7997C12.4096 17.5803 12.2459 17.3206 12.1386 17.0363C12.0313 16.7519 11.9828 16.4487 11.9959 16.1451C12.009 15.8415 12.0835 15.5436 12.2149 15.2696C12.3463 14.9955 12.5318 14.7509 12.7603 14.5505C12.9889 14.3501 13.2556 14.1981 13.5445 14.1036C13.8333 14.0092 14.1383 13.9742 14.4411 14.0009C14.7439 14.0275 15.0381 14.1152 15.306 14.2587C15.5739 14.4022 15.81 14.5984 16 14.8357C16.1909 14.6009 16.4272 14.4071 16.6947 14.2658C16.9623 14.1244 17.2556 14.0385 17.5571 14.0132C17.8586 13.9878 18.1621 14.0236 18.4495 14.1182C18.7369 14.2129 19.0022 14.3645 19.2297 14.5641C19.4571 14.7637 19.6419 15.007 19.7731 15.2797C19.9043 15.5523 19.9792 15.8487 19.9932 16.1509C20.0072 16.4532 19.9602 16.7551 19.8548 17.0388C19.7494 17.3224 19.588 17.5819 19.38 17.8017L16.754 20.6577C16.6603 20.7655 16.5446 20.852 16.4146 20.9113C16.2846 20.9706 16.1434 21.0013 16.0005 21.0013C15.8576 21.0013 15.7164 20.9706 15.5864 20.9113C15.4564 20.852 15.3407 20.7655 15.247 20.6577L12.62 17.7997Z" stroke="white" stroke-width="2" stroke-linecap="round" stroke-linejoin="round"/>
<path d="M7 14.0005C6.99993 13.7095 7.06333 13.4221 7.18579 13.1582C7.30824 12.8943 7.4868 12.6603 7.709 12.4725L14.709 6.47248C15.07 6.16739 15.5274 6 16 6C16.4726 6 16.93 6.16739 17.291 6.47248L24.291 12.4725C24.5132 12.6603 24.6918 12.8943 24.8142 13.1582C24.9367 13.4221 25.0001 13.7095 25 14.0005V23.0005C25 23.5309 24.7893 24.0396 24.4142 24.4147C24.0391 24.7898 23.5304 25.0005 23 25.0005H9C8.46957 25.0005 7.96086 24.7898 7.58579 24.4147C7.21071 24.0396 7 23.5309 7 23.0005V14.0005Z" stroke="white" stroke-width="2" stroke-linecap="round" stroke-linejoin="round"/>
</g>
<defs>
<clipPath id="clip0_4153_10">
<rect width="32" height="32" fill="white"/>
</clipPath>
</defs>
</svg>
